<?xml version="1.0" encoding="utf-8"?>
<!-- Generator: Adobe Illustrator 23.1.1, SVG Export Plug-In . SVG Version: 6.00 Build 0)  -->
<svg version="1.1" id="Layer_1" xmlns="http://www.w3.org/2000/svg" xmlns:xlink="http://www.w3.org/1999/xlink" x="0px" y="0px"
	 viewBox="0 0 242.24 207.76" style="enable-background:new 0 0 242.24 207.76;" xml:space="preserve">
<style type="text/css">
	.st0{fill:url(#SVGID_1_);}
	.st1{fill:url(#SVGID_2_);}
	.st2{fill:#D88119;}
	.st3{opacity:0.6;fill:url(#SVGID_3_);}
	.st4{opacity:0.8;fill:url(#SVGID_4_);}
	.st5{opacity:0.8;fill:url(#SVGID_5_);}
	.st6{opacity:0.8;fill:url(#SVGID_6_);}
	.st7{fill:url(#SVGID_7_);}
	.st8{fill:url(#SVGID_8_);}
	.st9{opacity:0.8;fill:url(#SVGID_9_);}
	.st10{fill:url(#SVGID_10_);}
	.st11{opacity:0.4;fill:url(#SVGID_11_);}
	.st12{opacity:0.7;fill:url(#SVGID_12_);}
	.st13{fill:url(#SVGID_13_);}
	.st14{fill:url(#SVGID_14_);}
	.st15{fill:url(#SVGID_15_);}
	.st16{opacity:0.7;fill:url(#SVGID_16_);}
	.st17{fill:url(#SVGID_17_);}
</style>
<symbol  id="Orb_-_Orange" viewBox="-33.09 -36 66.17 72">
	
		<radialGradient id="SVGID_1_" cx="994.8588" cy="22950.3672" r="28.9487" gradientTransform="matrix(1.1428 0 0 0.2501 -1136.9241 -5768.6475)" gradientUnits="userSpaceOnUse">
		<stop  offset="0.0982" style="stop-color:#DADADA;stop-opacity:0.95"/>
		<stop  offset="1" style="stop-color:#FFFFFF;stop-opacity:0"/>
	</radialGradient>
	<path class="st0" d="M33.09-28.76c0-4-14.81-7.24-33.09-7.24s-33.09,3.24-33.09,7.24c0,4,14.81,7.24,33.09,7.24
		S33.09-24.76,33.09-28.76z"/>
	<g>
		<g>
			
				<radialGradient id="SVGID_2_" cx="-0.0604" cy="-21.4607" r="34.1111" gradientTransform="matrix(1 0 0 1 -0.0339 0)" gradientUnits="userSpaceOnUse">
				<stop  offset="0" style="stop-color:#FFF350"/>
				<stop  offset="1" style="stop-color:#FAA919"/>
			</radialGradient>
			<path class="st1" d="M0-29.92c-18.11,0-32.84,14.73-32.84,32.84c0,18.11,14.73,32.84,32.84,32.84
				c18.11,0,32.84-14.73,32.84-32.84C32.84-15.19,18.11-29.92,0-29.92z"/>
			<g>
				<path class="st2" d="M0,35.5c17.97,0,32.59-14.62,32.59-32.59c0-17.97-14.62-32.59-32.59-32.59
					c-17.97,0-32.59,14.62-32.59,32.59C-32.59,20.88-17.97,35.5,0,35.5 M0,36c-18.27,0-33.09-14.81-33.09-33.09
					c0-18.27,14.81-33.09,33.09-33.09c18.28,0,33.09,14.81,33.09,33.09C33.09,21.19,18.28,36,0,36L0,36z"/>
			</g>
		</g>
		
			<radialGradient id="SVGID_3_" cx="-11.8982" cy="-3.8935" r="11.7102" gradientTransform="matrix(1 0 0 1 -0.0339 0)" gradientUnits="userSpaceOnUse">
			<stop  offset="0.1099" style="stop-color:#FFFFFF"/>
			<stop  offset="0.9505" style="stop-color:#000000"/>
		</radialGradient>
		<path class="st3" d="M-0.22-3.89c0-6.47-5.24-11.71-11.71-11.71c-6.47,0-11.71,5.24-11.71,11.71c0,6.47,5.24,11.71,11.71,11.71
			C-5.46,7.82-0.22,2.57-0.22-3.89z"/>
		
			<radialGradient id="SVGID_4_" cx="-14.6316" cy="16.3057" r="2.8132" gradientTransform="matrix(1 0 0 1 -0.0339 0)" gradientUnits="userSpaceOnUse">
			<stop  offset="0.1099" style="stop-color:#FFFFFF"/>
			<stop  offset="0.9505" style="stop-color:#000000"/>
		</radialGradient>
		<path class="st4" d="M-11.85,16.3c0-1.55-1.26-2.81-2.81-2.81c-1.56,0-2.81,1.26-2.81,2.81c0,1.55,1.26,2.81,2.81,2.81
			C-13.11,19.12-11.85,17.86-11.85,16.3z"/>
		
			<radialGradient id="SVGID_5_" cx="-15.4045" cy="-6.7646" r="4.3643" gradientTransform="matrix(1 0 0 1 -0.0339 0)" gradientUnits="userSpaceOnUse">
			<stop  offset="0.1099" style="stop-color:#FFFFFF"/>
			<stop  offset="0.9505" style="stop-color:#000000"/>
		</radialGradient>
		<path class="st5" d="M-11.07-6.77c0-2.41-1.95-4.36-4.36-4.36c-2.41,0-4.37,1.95-4.37,4.36c0,2.41,1.95,4.37,4.37,4.37
			C-13.03-2.4-11.07-4.36-11.07-6.77z"/>
		
			<radialGradient id="SVGID_6_" cx="4.3137" cy="21.3321" r="5.2615" gradientTransform="matrix(1 0 0 1 -0.0339 0)" gradientUnits="userSpaceOnUse">
			<stop  offset="0.1099" style="stop-color:#FFFFFF"/>
			<stop  offset="0.9505" style="stop-color:#000000"/>
		</radialGradient>
		<path class="st6" d="M9.54,21.33c0-2.91-2.36-5.26-5.26-5.26c-2.9,0-5.26,2.36-5.26,5.26c0,2.9,2.36,5.26,5.26,5.26
			C7.19,26.59,9.54,24.24,9.54,21.33z"/>
		
			<radialGradient id="SVGID_7_" cx="2.4314" cy="10.333" r="1.0772" gradientTransform="matrix(1 0 0 1 -0.0339 0)" gradientUnits="userSpaceOnUse">
			<stop  offset="0.1099" style="stop-color:#FFFFFF"/>
			<stop  offset="0.9505" style="stop-color:#000000"/>
		</radialGradient>
		<path class="st7" d="M3.47,10.33c0-0.6-0.48-1.08-1.08-1.08c-0.6,0-1.08,0.48-1.08,1.08c0,0.59,0.48,1.08,1.08,1.08
			C2.99,11.41,3.47,10.93,3.47,10.33z"/>
		
			<radialGradient id="SVGID_8_" cx="-8.2322" cy="8.4062" r="2.2229" gradientTransform="matrix(1 0 0 1 -0.0339 0)" gradientUnits="userSpaceOnUse">
			<stop  offset="0.1099" style="stop-color:#FFFFFF"/>
			<stop  offset="0.9505" style="stop-color:#000000"/>
		</radialGradient>
		<path class="st8" d="M-6.04,8.41c0-1.23-1-2.22-2.22-2.22c-1.23,0-2.22,1-2.22,2.22s1,2.22,2.22,2.22
			C-7.04,10.63-6.04,9.63-6.04,8.41z"/>
		
			<radialGradient id="SVGID_9_" cx="16.1804" cy="5.1104" r="15.415" gradientTransform="matrix(1 0 0 1 -0.0339 0)" gradientUnits="userSpaceOnUse">
			<stop  offset="0.1099" style="stop-color:#FFFFFF"/>
			<stop  offset="0.9505" style="stop-color:#000000"/>
		</radialGradient>
		<path class="st9" d="M31.56,5.11c0-8.51-6.9-15.41-15.42-15.41C7.63-10.3,0.73-3.4,0.73,5.11c0,8.51,6.9,15.42,15.42,15.42
			C24.66,20.53,31.56,13.62,31.56,5.11z"/>
		
			<linearGradient id="SVGID_10_" gradientUnits="userSpaceOnUse" x1="-593.7336" y1="619.2538" x2="-630.7857" y2="582.2017" gradientTransform="matrix(0.9633 0.036 0.036 0.9647 573.9209 -562.4717)">
			<stop  offset="0" style="stop-color:#000000"/>
			<stop  offset="0.6044" style="stop-color:#FFFFFF"/>
			<stop  offset="0.9011" style="stop-color:#000000"/>
		</linearGradient>
		<path class="st10" d="M3.21-1.52c9.68,9.88,20.57,15.03,24.88,11.9c-0.12,0.16-0.25,0.3-0.38,0.44C23.75,14.7,12.41,9.54,2.38-0.7
			C-7.66-10.94-12.59-22.38-8.64-26.26c0.14-0.14,0.29-0.26,0.45-0.38C-11.4-22.39-6.47-11.4,3.21-1.52z"/>
		
			<linearGradient id="SVGID_11_" gradientUnits="userSpaceOnUse" x1="18926.6602" y1="-12499.2314" x2="18889.6094" y2="-12536.2832" gradientTransform="matrix(-0.3696 0.9966 0.8496 0.6373 17625.4961 -10865.0098)">
			<stop  offset="0" style="stop-color:#000000"/>
			<stop  offset="0.6044" style="stop-color:#FFFFFF"/>
			<stop  offset="0.9011" style="stop-color:#000000"/>
		</linearGradient>
		<path class="st11" d="M6.13,0.86c4.81,15.94,4.89,30.16,0.29,32.57c0.19-0.02,0.38-0.05,0.56-0.11
			c5.12-1.58,5.23-16.26,0.24-32.79C2.23-16-5.97-28.12-11.09-26.53c-0.18,0.06-0.36,0.13-0.53,0.22
			C-6.47-26.91,1.32-15.08,6.13,0.86z"/>
		
			<linearGradient id="SVGID_12_" gradientUnits="userSpaceOnUse" x1="18590.3008" y1="-5079.2407" x2="18553.248" y2="-5116.293" gradientTransform="matrix(-0.5506 0.8376 -0.9113 -0.4243 5580.4185 -17727.0625)">
			<stop  offset="0" style="stop-color:#000000"/>
			<stop  offset="0.6044" style="stop-color:#FFFFFF"/>
			<stop  offset="0.9011" style="stop-color:#000000"/>
		</linearGradient>
		<path class="st12" d="M-1.45-12.26C-15.78-8.34-26.39-1.12-25.81,4.18c-0.08-0.18-0.15-0.36-0.2-0.55
			c-1.46-5.34,9.4-12.96,24.26-17.02c14.86-4.06,28.09-3.02,29.54,2.31c0.05,0.19,0.08,0.38,0.1,0.58
			C25.69-15.35,12.88-16.18-1.45-12.26z"/>
		
			<linearGradient id="SVGID_13_" gradientUnits="userSpaceOnUse" x1="-2880.0903" y1="-5719.3647" x2="-2917.1423" y2="-5756.4165" gradientTransform="matrix(0.8336 -0.5524 0.5524 0.8336 5584.3374 3197.1885)">
			<stop  offset="0" style="stop-color:#000000"/>
			<stop  offset="0.6044" style="stop-color:#FFFFFF"/>
			<stop  offset="0.9011" style="stop-color:#000000"/>
		</linearGradient>
		<path class="st13" d="M-1.83,19.9c13.52,2.89,25.51,0.85,27.46-4.54c-0.02,0.21-0.04,0.42-0.09,0.63
			c-1.25,5.83-13.62,8.13-27.64,5.14c-14.02-2.99-24.38-10.15-23.14-15.98c0.04-0.21,0.1-0.41,0.18-0.61
			C-25.47,10.26-15.36,17.01-1.83,19.9z"/>
		
			<linearGradient id="SVGID_14_" gradientUnits="userSpaceOnUse" x1="2544.7258" y1="-14879.2051" x2="2507.6714" y2="-14916.2598" gradientTransform="matrix(-0.4266 -1.395 1.45 0.0123 22685.1465 3715.6348)">
			<stop  offset="0" style="stop-color:#000000"/>
			<stop  offset="0.6044" style="stop-color:#FFFFFF"/>
			<stop  offset="0.9011" style="stop-color:#000000"/>
		</linearGradient>
		<path class="st14" d="M12.31,12.27C22.5-1.11,24.89-16.56,17.99-23.02c0.3,0.18,0.59,0.37,0.87,0.59
			c7.87,5.99,5.68,22.1-4.89,35.97C3.4,27.41-11.54,33.8-19.41,27.81c-0.28-0.21-0.54-0.44-0.8-0.68
			C-12.14,32.07,2.12,25.65,12.31,12.27z"/>
		
			<linearGradient id="SVGID_15_" gradientUnits="userSpaceOnUse" x1="8088.1284" y1="1974.3446" x2="8051.0747" y2="1937.291" gradientTransform="matrix(0.8051 0.8335 -0.8394 0.7986 -4864.9585 -8286.5674)">
			<stop  offset="0" style="stop-color:#000000"/>
			<stop  offset="0.6044" style="stop-color:#FFFFFF"/>
			<stop  offset="0.9011" style="stop-color:#000000"/>
		</linearGradient>
		<path class="st15" d="M-15.18,2c-0.5,15.96,4.32,29.15,10.89,30.27c-0.24,0.03-0.49,0.04-0.73,0.03
			c-6.93-0.22-12.13-13.8-11.62-30.34c0.52-16.54,6.56-29.78,13.49-29.56c0.25,0.01,0.49,0.04,0.73,0.08
			C-9.05-26.83-14.68-13.96-15.18,2z"/>
		
			<linearGradient id="SVGID_16_" gradientUnits="userSpaceOnUse" x1="17667.6504" y1="-10124.4043" x2="17630.5996" y2="-10161.4561" gradientTransform="matrix(-0.9505 0.5407 -0.4071 -1.0118 12654.3232 -19821.0176)">
			<stop  offset="0" style="stop-color:#000000"/>
			<stop  offset="0.6044" style="stop-color:#FFFFFF"/>
			<stop  offset="0.9011" style="stop-color:#000000"/>
		</linearGradient>
		<path class="st16" d="M9.15-20.76c-13.22-4.76-25.79-3.72-28.78,2.21c0.05-0.24,0.12-0.47,0.2-0.71
			c2.35-6.53,15.37-7.82,29.07-2.88C23.36-17.21,32.56-7.92,30.21-1.39c-0.08,0.23-0.18,0.45-0.29,0.67
			C31.41-7.2,22.37-16.01,9.15-20.76z"/>
		<g>
			
				<linearGradient id="SVGID_17_" gradientUnits="userSpaceOnUse" x1="-3673.8669" y1="15508.9375" x2="-3673.8669" y2="15428.3779" gradientTransform="matrix(0.6881 0 0 0.3317 2527.9883 -5112.4512)">
				<stop  offset="0" style="stop-color:#FFFFFF"/>
				<stop  offset="1" style="stop-color:#000000"/>
			</linearGradient>
			<path class="st17" d="M19.77,21.8c0-5.55-8.85-10.06-19.77-10.06s-19.76,4.5-19.76,10.06S-10.92,31.86,0,31.86
				S19.77,27.36,19.77,21.8z"/>
		</g>
	</g>
</symbol>
<use xlink:href="#Orb_-_Orange"  width="66.17" height="72" x="-33.09" y="-36" transform="matrix(2.025 0 0 -1.9143 124.8613 109.4661)" style="overflow:visible;"/>
</svg>
